<?xml version="1.0" standalone="no"?>
<!DOCTYPE svg PUBLIC "-//W3C//DTD SVG 20010904//EN"
 "http://www.w3.org/TR/2001/REC-SVG-20010904/DTD/svg10.dtd">
<svg version="1.0" xmlns="http://www.w3.org/2000/svg"
 width="394.000000pt" height="128.000000pt" viewBox="0 0 394.000000 128.000000"
 preserveAspectRatio="xMidYMid meet">
<metadata>
Created by potrace 1.13, written by Peter Selinger 2001-2015
</metadata>
<g transform="translate(0.000000,128.000000) scale(0.100000,-0.100000)"
fill="#000000" stroke="none">
<path d="M648 897 l263 -263 -260 -257 -260 -257 167 0 167 0 175 174 175 175
179 -175 178 -174 167 1 166 0 -263 257 -262 257 262 263 263 262 -165 0 -165
0 -180 -180 -180 -180 -180 180 -180 180 -165 0 -165 0 263 -263z"/>
<path d="M2130 710 l0 -360 60 0 c53 0 60 2 60 20 0 25 2 25 53 -2 60 -32 184
-32 243 -1 171 91 209 331 73 460 -83 79 -222 100 -319 50 l-50 -26 0 109 0
110 -60 0 -60 0 0 -360z m370 47 c106 -70 96 -223 -16 -278 -136 -66 -274 78
-208 218 38 79 152 110 224 60z"/>
<path d="M1687 893 c-63 -21 -134 -85 -163 -148 -49 -103 -24 -243 56 -323
128 -128 351 -99 438 57 l23 41 -69 0 c-51 0 -73 -4 -83 -16 -26 -32 -70 -46
-131 -42 -47 3 -64 10 -88 33 -16 15 -34 41 -39 56 l-10 29 221 0 221 0 -5 64
c-10 119 -89 218 -201 251 -63 19 -109 18 -170 -2z m135 -103 c38 -11 98 -69
98 -95 0 -13 -24 -15 -145 -15 -80 0 -145 2 -145 5 0 13 30 62 44 74 16 13 82
40 101 41 6 0 27 -5 47 -10z"/>
<path d="M3213 900 c-56 -12 -91 -31 -135 -77 -55 -57 -78 -115 -78 -199 0
-131 74 -234 194 -269 88 -26 171 -15 226 31 l30 26 0 -31 0 -31 60 0 60 0 0
270 0 270 -60 0 -60 0 0 -32 0 -32 -27 26 c-47 44 -131 63 -210 48z m147 -142
c126 -87 71 -288 -78 -288 -144 0 -213 169 -109 267 39 37 49 41 108 42 32 1
56 -6 79 -21z"/>
<path d="M2792 623 l3 -268 58 -3 57 -3 0 271 0 270 -60 0 -60 0 2 -267z"/>
</g>
</svg>
