<?xml version="1.0" standalone="no"?>
<!DOCTYPE svg PUBLIC "-//W3C//DTD SVG 20010904//EN"
 "http://www.w3.org/TR/2001/REC-SVG-20010904/DTD/svg10.dtd">
<svg version="1.0" xmlns="http://www.w3.org/2000/svg"
 width="1483.000000pt" height="517.000000pt" viewBox="0 0 1483.000000 517.000000"
 preserveAspectRatio="xMidYMid meet">

<g transform="translate(0.000000,517.000000) scale(0.100000,-0.100000)"
fill="#000000" stroke="none">
<path d="M1867 5044 c-50 -69 -92 -130 -92 -137 0 -6 110 -92 245 -191 l244
-181 -49 -2 c-459 -23 -863 -151 -1220 -389 -536 -357 -897 -940 -981 -1584
-21 -162 -15 -527 11 -670 59 -329 171 -613 343 -875 363 -554 944 -916 1615
-1005 136 -18 464 -13 618 10 329 48 648 171 924 355 341 227 593 516 775 890
107 219 165 399 205 635 22 130 31 448 16 591 -44 419 -193 804 -444 1139
-108 144 -305 341 -453 452 -8 5 -46 -38 -113 -128 -57 -75 -101 -137 -99
-138 159 -129 230 -197 326 -311 235 -280 383 -613 438 -985 25 -171 15 -470
-20 -638 -64 -301 -191 -575 -380 -817 -60 -77 -213 -231 -296 -300 -355 -290
-857 -455 -1305 -430 -720 40 -1341 452 -1649 1096 -282 588 -250 1270 84
1824 332 550 923 903 1559 932 114 5 133 4 126 -8 -5 -8 -85 -116 -177 -240
-92 -125 -168 -231 -168 -235 0 -5 42 -39 93 -76 50 -37 111 -81 134 -98 l41
-30 357 481 c292 394 354 484 343 494 -37 33 -939 695 -948 695 -5 0 -52 -57
-103 -126z"/>
<path d="M5470 2325 l0 -1175 504 0 c407 0 520 3 592 15 347 60 639 252 800
525 168 285 208 709 98 1048 -114 353 -400 614 -784 716 -147 39 -249 46 -747
46 l-463 0 0 -1175z m967 894 c251 -28 458 -129 590 -288 143 -173 213 -444
185 -719 -16 -158 -35 -228 -94 -352 -45 -93 -61 -115 -142 -195 -76 -76 -107
-99 -186 -138 -52 -26 -140 -59 -195 -74 -98 -26 -106 -27 -467 -31 l-368 -4
0 906 0 906 290 0 c160 0 334 -5 387 -11z"/>
<path d="M894 2962 c3 -5 132 -195 286 -421 169 -248 279 -419 276 -427 -5
-14 -496 -729 -573 -836 l-35 -48 151 0 151 0 234 351 234 351 54 -84 c30 -46
132 -203 227 -350 l173 -268 155 0 154 0 -19 28 c-83 118 -574 846 -578 856
-3 7 120 197 273 422 154 225 282 415 287 422 6 9 -25 12 -141 12 l-148 -1
-210 -324 c-115 -178 -212 -324 -215 -324 -3 -1 -101 146 -219 324 l-213 325
-155 0 c-85 0 -152 -4 -149 -8z"/>
<path d="M2540 2100 l0 -870 560 0 560 0 0 105 0 105 -435 0 -435 0 0 765 0
765 -125 0 -125 0 0 -870z"/>
<path d="M12329 2950 c-272 -32 -515 -182 -652 -401 -101 -163 -140 -307 -140
-519 0 -212 39 -356 140 -519 85 -136 229 -261 379 -327 195 -86 459 -103 675
-43 162 45 341 162 441 287 196 246 257 623 150 932 -141 407 -539 643 -993
590z m346 -234 c235 -80 397 -270 452 -529 18 -88 13 -274 -11 -362 -38 -140
-134 -290 -241 -373 -245 -192 -609 -189 -851 7 -302 244 -343 751 -85 1058
72 86 184 162 287 196 107 35 112 36 249 33 100 -2 133 -7 200 -30z"/>
<path d="M7760 2030 l0 -880 575 0 575 0 0 100 0 100 -470 0 -470 0 0 310 0
310 420 0 420 0 0 100 0 100 -420 0 -420 0 0 270 0 270 450 0 450 0 0 100 0
100 -555 0 -555 0 0 -880z"/>
<path d="M9180 2031 l0 -881 105 0 105 0 0 395 0 395 233 0 c264 0 329 10 445
65 164 78 252 226 252 423 -1 233 -116 383 -350 453 -70 21 -97 23 -432 27
l-358 4 0 -881z m718 654 c71 -25 145 -92 169 -153 28 -72 23 -165 -10 -234
-31 -63 -74 -101 -151 -132 -45 -18 -77 -21 -283 -24 l-233 -4 0 287 0 287
228 -4 c187 -4 236 -8 280 -23z"/>
<path d="M10540 2030 l0 -880 515 0 515 0 0 100 0 100 -405 0 -405 0 0 780 0
780 -110 0 -110 0 0 -880z"/>
<path d="M13328 2878 c10 -18 157 -243 326 -500 l306 -467 0 -381 0 -380 110
0 110 0 0 375 0 375 325 496 c179 273 325 500 325 505 0 5 -57 9 -128 9 l-127
0 -200 -312 c-110 -172 -223 -348 -251 -391 l-51 -79 -243 391 -243 391 -140
0 -139 0 20 -32z"/>
</g>
</svg>
