<?xml version="1.0" encoding="utf-8"?>
<!-- Generator: Adobe Illustrator 18.1.1, SVG Export Plug-In . SVG Version: 6.00 Build 0)  -->
<!DOCTYPE svg PUBLIC "-//W3C//DTD SVG 1.1//EN" "http://www.w3.org/Graphics/SVG/1.1/DTD/svg11.dtd">
<svg version="1.1" id="Layer_1" xmlns="http://www.w3.org/2000/svg" xmlns:xlink="http://www.w3.org/1999/xlink" x="0px" y="0px"
	 viewBox="0 0 384.4 149.1" enable-background="new 0 0 384.4 149.1" xml:space="preserve">
<g>
	<g>
		<path fill="#0EAE4B" d="M148.9,51.7h21.6c11,0,27.5,7.4,27.5,28c0,20.7-16.5,28-27.5,28h-21.6V51.7z M155.6,101.6h12.7
			c12.8,0,22.6-6.5,22.6-21.9c0-15.4-9.7-21.9-22.6-21.9h-12.7V101.6z"/>
		<path fill="#0EAE4B" d="M203.8,65.7h26.4v4.6h-21.5v13.2h20v4.6h-20v15h22.5v4.6h-27.5V65.7z"/>
		<path fill="#0EAE4B" d="M237.8,65.7h12.5c7.7,0,14.7,2.7,14.7,11.5c0,9.2-7.8,11.6-13.8,11.6h-8.4v18.9h-5V65.7z M242.8,84.3h8.4
			c5,0,8.4-2.3,8.4-7c0-4.7-3.4-7-8.4-7h-8.4V84.3z"/>
		<path fill="#0EAE4B" d="M270.7,65.7h5v37.4h19.3v4.6h-24.2V65.7z"/>
		<path fill="#0EAE4B" d="M294.4,86.8c0-12.7,9.2-22.1,22-22.1c12.8,0,22,9.4,22,22.1s-9.2,22.1-22,22.1
			C303.6,108.9,294.4,99.5,294.4,86.8z M333,86.8c0-9.7-6.8-17.5-16.6-17.5s-16.6,7.8-16.6,17.5s6.8,17.5,16.6,17.5
			S333,96.5,333,86.8z"/>
		<path fill="#0EAE4B" d="M352.8,89.7l-15.7-24h6.4l11.8,19l12.2-19h6l-15.7,24v18.1h-5V89.7z"/>
	</g>
	<g>
		<path fill="#0EAE4B" d="M44.9,105.9h-6.8l14.7-21.4L39,64.3h7l10.5,15.9L67,64.3h6.7L59.9,84.6l14.5,21.4h-7L56.3,88.8L44.9,105.9
			z"/>
		<path fill="#0EAE4B" d="M78.7,64.3h5.6V101h20.9v5H78.7V64.3z"/>
		<path fill="#0EAE4B" d="M104.2,37.5l-4.7,6.3c20.6,15.2,24.9,44.4,9.7,65c-15.2,20.6-44.4,24.9-65,9.7l0,0l-0.2-0.1
			c-20.5-15.3-24.8-44.4-9.6-64.9c9.1-12.3,23.7-19.2,38.7-18.8l-8.8,11.8l6.3,4.7l17-22.9l-22.9-17l-4.7,6.3l12.3,9.1
			c-17.2-0.1-33.8,7.9-44.3,22c-17.8,24.1-12.7,58.2,11.3,76l0,0v0c0,0,0.1,0,0.1,0.1l0.1,0.1v0c24.1,17.6,58,12.5,75.7-11.5
			C133.3,89.5,128.2,55.4,104.2,37.5z"/>
	</g>
</g>
</svg>
