<?xml version="1.0" standalone="no"?>
<!DOCTYPE svg PUBLIC "-//W3C//DTD SVG 20010904//EN"
 "http://www.w3.org/TR/2001/REC-SVG-20010904/DTD/svg10.dtd">
<svg version="1.0" xmlns="http://www.w3.org/2000/svg"
 width="512.000000pt" height="512.000000pt" viewBox="0 0 512.000000 512.000000"
 preserveAspectRatio="xMidYMid meet">
<metadata>
Created by potrace 1.13, written by Peter Selinger 2001-2015
</metadata>
<g transform="translate(0.000000,512.000000) scale(0.100000,-0.100000)"
fill="#000000" stroke="none">
<path d="M2903 4822 c-66 -1 -113 -7 -113 -13 0 -19 73 -236 97 -286 14 -29
36 -64 49 -78 20 -22 27 -24 44 -15 31 16 56 63 90 165 27 83 62 217 57 221
-7 5 -129 9 -224 6z"/>
<path d="M3276 4783 c15 -62 96 -270 119 -305 29 -44 46 -47 73 -14 20 26 65
154 77 217 l7 35 -69 32 c-56 26 -174 61 -206 62 -4 0 -4 -12 -1 -27z"/>
<path d="M2493 4778 c-69 -13 -103 -24 -103 -33 0 -21 50 -154 80 -215 54
-107 89 -112 129 -20 24 57 55 170 66 243 l7 47 -38 -1 c-22 0 -85 -10 -141
-21z"/>
<path d="M2195 4677 c-33 -17 -91 -61 -129 -97 l-68 -65 44 -65 c74 -108 112
-115 155 -29 28 55 81 289 65 289 -4 0 -34 -15 -67 -33z"/>
<path d="M2420 4119 c-182 -8 -549 -35 -555 -41 -2 -2 -13 -79 -24 -173 -12
-93 -30 -226 -41 -295 -33 -220 -35 -243 -28 -345 12 -188 70 -280 218 -347
183 -83 175 -77 172 -128 -4 -59 -37 -218 -62 -299 l-19 -63 40 -102 c22 -55
95 -230 161 -388 l121 -288 77 -29 c211 -82 407 -106 538 -66 13 5 22 3 22 -3
0 -12 -60 -32 -95 -32 -45 -1 -45 -15 3 -69 l48 -54 18 42 c11 22 23 41 27 41
5 0 -4 -25 -19 -56 l-27 -56 -68 73 -67 74 -70 -72 -70 -71 -73 94 c-39 51
-75 90 -79 86 -3 -4 -18 -33 -32 -65 l-25 -57 32 -13 c18 -8 76 -26 131 -42
88 -24 110 -27 210 -23 62 2 121 10 134 17 13 7 26 10 29 8 3 -3 -15 -16 -39
-28 -93 -48 -286 -32 -436 36 -30 14 -57 24 -59 22 -2 -2 102 -251 231 -552
129 -301 232 -544 227 -539 -4 5 -61 89 -125 187 -182 275 -444 615 -560 726
-20 19 -36 38 -36 42 0 4 23 13 50 20 28 7 60 21 71 32 28 26 22 74 -13 100
-27 20 -28 20 -69 1 -23 -10 -60 -31 -81 -47 l-39 -28 -57 54 c-31 30 -81 73
-110 95 -30 23 -79 65 -110 92 -46 41 -54 53 -42 60 28 19 145 51 204 57 96
10 128 58 78 116 -31 35 -129 12 -278 -67 l-82 -44 -29 32 c-77 82 -233 303
-233 328 0 16 -21 4 -116 -63 -191 -136 -326 -292 -419 -483 -118 -243 -166
-487 -169 -861 -1 -177 1 -193 21 -238 34 -73 77 -121 151 -170 233 -155 573
-215 1151 -204 378 7 617 35 879 103 201 52 514 189 677 295 105 69 214 179
251 255 l29 59 0 230 c0 245 -9 333 -52 505 -63 259 -168 418 -361 547 l-77
52 -3 -39 c-3 -37 -4 -39 -28 -30 -38 15 -62 12 -84 -10 -25 -25 -26 -72 -1
-94 11 -10 38 -20 61 -23 38 -5 41 -8 36 -32 -3 -14 -8 -44 -11 -66 -4 -22
-18 -99 -32 -172 -23 -121 -27 -131 -44 -123 -31 17 -69 11 -96 -16 -21 -21
-24 -32 -20 -61 8 -46 18 -55 66 -62 l39 -6 -49 -175 c-71 -255 -85 -312 -109
-445 -28 -151 -62 -269 -102 -352 -36 -77 -46 -78 -17 -2 26 67 56 201 76 339
30 207 28 920 -3 1293 l-7 77 60 0 c68 0 193 29 250 58 118 61 199 149 272
296 73 148 83 191 87 340 l2 129 48 36 c29 22 58 56 73 86 41 78 41 237 2 525
-17 124 -37 287 -45 364 -8 76 -20 144 -26 151 -13 16 -83 33 -164 40 -57 5
-58 5 -52 -17 3 -13 6 -29 6 -35 0 -8 14 -13 35 -13 19 0 35 -3 35 -7 0 -5 7
-47 14 -94 30 -179 38 -354 27 -584 -15 -300 -18 -320 -49 -334 -34 -16 -105
-25 -136 -17 -14 3 -46 25 -73 48 -81 70 -153 86 -223 50 -34 -17 -37 -17 -80
2 -68 29 -131 24 -227 -17 -240 -104 -371 -105 -460 -3 -40 44 -41 30 -8 -61
27 -76 27 -94 0 -33 -10 22 -22 40 -26 40 -11 0 -53 -57 -78 -107 -12 -24 -28
-73 -37 -110 -9 -37 -17 -69 -19 -71 -1 -1 -39 54 -84 123 -45 69 -85 125 -90
125 -5 0 -32 21 -60 46 -34 31 -63 70 -88 122 -36 71 -38 82 -38 166 0 100 15
140 68 180 42 31 152 35 217 7 56 -24 85 -27 97 -8 4 6 11 64 15 127 3 63 10
145 13 182 6 51 4 72 -6 85 -8 9 -9 14 -2 10 16 -10 25 8 28 52 1 20 4 43 6
51 4 16 51 29 115 29 34 1 46 7 73 36 30 33 30 35 9 33 -13 0 -106 -5 -208 -9z
m987 -1288 c37 -11 96 -23 130 -25 34 -3 73 -12 87 -21 26 -17 26 -18 8 -48
-35 -61 -119 -137 -189 -169 -65 -31 -74 -32 -218 -36 -171 -5 -237 7 -343 60
-88 44 -248 195 -229 215 3 3 31 -7 61 -21 106 -50 218 -45 371 19 101 42 91
39 179 43 53 2 94 -3 143 -17z m-1176 -69 c0 -9 3 -12 5 -6 7 18 52 -8 95 -53
25 -27 39 -54 48 -93 17 -77 72 -186 126 -247 106 -121 339 -236 520 -258 33
-4 63 -13 68 -19 12 -17 -2 -134 -24 -203 -32 -99 -97 -143 -213 -143 -195 0
-429 154 -588 388 -57 84 -135 240 -144 288 -6 32 48 273 77 346 12 29 28 29
30 0z"/>
<path d="M1533 3007 c-40 -15 -83 -52 -83 -72 0 -20 26 -30 43 -17 42 33 113
21 195 -32 55 -35 81 -37 115 -8 26 23 22 76 -8 101 -49 37 -193 53 -262 28z"/>
<path d="M1593 2591 c-49 -13 -105 -45 -126 -73 -29 -38 -12 -54 25 -23 42 35
144 35 243 -1 105 -38 128 -40 154 -13 26 28 27 60 2 90 -18 23 -26 24 -143
26 -67 1 -137 -2 -155 -6z"/>
<path d="M1905 2259 c-53 -28 -142 -114 -167 -164 -13 -24 -23 -67 -26 -109
-4 -62 -3 -68 14 -64 13 2 21 16 27 46 16 79 106 152 219 176 57 13 78 76 38
116 -25 25 -54 25 -105 -1z"/>
</g>
</svg>
